<?xml version="1.0" encoding="iso-8859-1"?>
<!-- Generator: Adobe Illustrator 19.0.0, SVG Export Plug-In . SVG Version: 6.00 Build 0)  -->
<svg version="1.1" id="Capa_1" xmlns="http://www.w3.org/2000/svg" xmlns:xlink="http://www.w3.org/1999/xlink" x="0px" y="0px"
	 viewBox="0 0 512 512" style="enable-background:new 0 0 512 512;" xml:space="preserve">
<circle style="fill:#FFA700;" cx="256" cy="256" r="256"/>
<path style="fill:#FF6900;" d="M512,256c0-2.545-0.048-5.079-0.122-7.607L263.607,0.122l0,0c-0.792-0.023-1.586-0.038-2.379-0.055
	C259.488,0.031,257.748,0,256,0c-1.748,0-3.488,0.031-5.227,0.066c-0.793,0.017-1.587,0.032-2.379,0.055l0,0v45.39
	c0,3.801-3.092,6.893-6.893,6.893h-34.23c-12.19,0-22.107,9.917-22.107,22.107v0.476c0,5.495,2.017,10.525,5.348,14.394
	l57.882,57.827v29.458H207.25v24.218H86.75c-10.038,0-18.25,8.212-18.25,18.25v143.667c0,4.775,1.859,9.136,4.889,12.397
	L204.09,506.73c16.763,3.453,34.124,5.27,51.91,5.27C397.385,512,512,397.385,512,256z"/>
<path style="fill:#FFFFFF;" d="M241.5,52.405h-34.23c-12.19,0-22.107,9.917-22.107,22.107v0.475c0,12.19,9.917,22.107,22.107,22.107
	h105.542c3.801,0,6.893,3.092,6.893,6.894c0,3.801-3.092,6.894-6.893,6.894H270.5c-12.19,0-22.107,9.917-22.107,22.107V178.5h15.213
	v-45.512c0-3.801,3.092-6.894,6.893-6.894h42.312c12.19,0,22.107-9.917,22.107-22.107s-9.917-22.107-22.107-22.107H207.27
	c-3.801,0-6.893-3.092-6.893-6.894v-0.475c0-3.801,3.092-6.894,6.893-6.894h34.23c12.19,0,22.107-9.917,22.107-22.107V0.122
	C261.079,0.048,258.545,0,256,0c-2.545,0-5.079,0.048-7.607,0.122v45.39C248.393,49.313,245.301,52.405,241.5,52.405z"/>
<g>
	<path style="fill:#FFEE93;" d="M256,62.19V0c2.55,0,5.08,0.05,7.61,0.12v45.39C263.61,52.16,260.66,58.13,256,62.19z"/>
	<path style="fill:#FFEE93;" d="M334.92,103.99c0,12.19-9.92,22.1-22.11,22.1H270.5c-3.8,0-6.89,3.1-6.89,6.9v45.51H256v-62.18
		c3.89-3.39,8.95-5.44,14.5-5.44h42.31c3.8,0,6.9-3.09,6.9-6.89s-3.1-6.9-6.9-6.9H256V81.88h56.81
		C325,81.88,334.92,91.8,334.92,103.99z"/>
</g>
<rect x="207.25" y="176.67" style="fill:#006EF5;" width="97.5" height="27.5"/>
<rect x="256" y="176.67" style="fill:#0043A3;" width="48.75" height="27.5"/>
<path style="fill:#FFFFFF;" d="M425.25,381.052H86.75c-10.038,0-18.25-8.212-18.25-18.25V219.135c0-10.038,8.212-18.25,18.25-18.25
	h338.5c10.037,0,18.25,8.212,18.25,18.25v143.667C443.5,372.839,435.287,381.052,425.25,381.052z"/>
<path style="fill:#FFF4AA;" d="M443.5,219.13V362.8c0,10.04-8.21,18.25-18.25,18.25H256V200.88h169.25
	C435.29,200.88,443.5,209.1,443.5,219.13z"/>
<g>
	<rect x="93.51" y="226.2" style="fill:#00D4D1;" width="32.654" height="32.32"/>
	<rect x="142.23" y="226.2" style="fill:#00D4D1;" width="32.654" height="32.32"/>
	<rect x="190.95" y="226.2" style="fill:#00D4D1;" width="32.654" height="32.32"/>
	<rect x="239.67" y="226.2" style="fill:#00D4D1;" width="32.654" height="32.32"/>
</g>
<g>
	<rect x="288.39" y="226.2" style="fill:#009CA0;" width="32.654" height="32.32"/>
	<rect x="337.12" y="226.2" style="fill:#009CA0;" width="32.654" height="32.32"/>
	<rect x="385.84" y="226.2" style="fill:#009CA0;" width="32.654" height="32.32"/>
</g>
<g>
	<rect x="93.51" y="320.08" style="fill:#00D4D1;" width="32.654" height="32.32"/>
	<rect x="142.23" y="320.08" style="fill:#00D4D1;" width="32.654" height="32.32"/>
	<rect x="190.95" y="320.08" style="fill:#00D4D1;" width="130.1" height="32.32"/>
</g>
<g>
	<rect x="337.12" y="320.08" style="fill:#009CA0;" width="32.654" height="32.32"/>
	<rect x="385.84" y="320.08" style="fill:#009CA0;" width="32.654" height="32.32"/>
</g>
<g>
	<rect x="117.87" y="273.14" style="fill:#00D4D1;" width="32.654" height="32.32"/>
	<rect x="166.59" y="273.14" style="fill:#00D4D1;" width="32.654" height="32.32"/>
	<rect x="215.31" y="273.14" style="fill:#00D4D1;" width="32.654" height="32.32"/>
</g>
<g>
	<rect x="264.03" y="273.14" style="fill:#009CA0;" width="32.654" height="32.32"/>
	<rect x="312.75" y="273.14" style="fill:#009CA0;" width="32.654" height="32.32"/>
	<rect x="361.48" y="273.14" style="fill:#009CA0;" width="32.654" height="32.32"/>
	<rect x="256" y="226.2" style="fill:#009CA0;" width="16.33" height="32.32"/>
	<rect x="256" y="320.08" style="fill:#009CA0;" width="65.05" height="32.32"/>
</g>
<g>
</g>
<g>
</g>
<g>
</g>
<g>
</g>
<g>
</g>
<g>
</g>
<g>
</g>
<g>
</g>
<g>
</g>
<g>
</g>
<g>
</g>
<g>
</g>
<g>
</g>
<g>
</g>
<g>
</g>
</svg>
